<mxfile host="app.diagrams.net" modified="2023-02-15T05:35:10.059Z" agent="5.0 (Macintosh; Intel Mac OS X 10_15_7) AppleWebKit/537.36 (KHTML, like Gecko) Chrome/109.0.0.0 Safari/537.36" etag="qsgWVHVwkaXYBZ_i6EVX" version="20.8.20" type="github">
  <diagram name="Page-1" id="qSuZdzZaE5NoMa65ZHbZ">
    <mxGraphModel dx="1080" dy="728" grid="1" gridSize="10" guides="1" tooltips="1" connect="1" arrows="1" fold="1" page="1" pageScale="1" pageWidth="827" pageHeight="1169" math="0" shadow="0">
      <root>
        <mxCell id="0" />
        <mxCell id="1" style="locked=1;" parent="0" visible="0" />
        <mxCell id="jXBSCCMV-D7_--bO9lGM-3" value="" style="shape=image;verticalLabelPosition=bottom;labelBackgroundColor=default;verticalAlign=top;aspect=fixed;imageAspect=0;image=data:image/png,iVBORw0KGgoAAAANSUhEUgAAAggAAAEqCAYAAABwcKjDAAAAAXNSR0IArs4c6QAAIABJREFUeF7snQd4VEX3xt9t6Z3Qi/QqvfcqVRBFQEWwi4j6t/fePrufvdMVFLCBCIjSpErv0lso6T3Z/n/eg8sHGGCzJLCbnHmesMvuvXNnfnP3nnfOzJwxvPzw9e7c7AxoUgJKQAkoASVQEAGX2w2Hw4lYHEVmSsI/hxgAGMB/z53cpxwPeP73r3MMZ/3mfBcosd+fn+3pVQ8Kj0NQRBmYkQ1Xng1pKZkoV7kGXMZg2G15MEWVQ2bCRrhtuSdPNBgMMMXWgs0YDZPJBMM/Fw2LiIbB+kNHN2yJJRawVkwJKAEloAR8J+B2A063G/k2N3YedeDXjYAtP/OUDE8IBUluA3DS0HsM/ukC4eSxBRZJRcL5WurfosF9dtF1Ur4VLDX4aWRMWVzT3IoKsUYEm40wGv8pQVA5FQjnawz9XgkoASVQmglQILjhgs0BEQm/rHNg77E8OJ2OArDQuri8wuWGxxK5vPBCeJVlyT7oVBvvs47yiDlm4EZwcBha1TSiXd0gBFsAi8kAehQkqUAo2feT1k4JKAElUBQExIvgcotISM5yYsN+YPtRwJqXBbfLeeGXKKwv/cKvWLpyOENQmC0hCAsLQ4tqTjSrYUSwxQiLyQ2jwXhyiEEFQum6RbS2SuAkAVODu2CqfyccWz6AudljcB2cDYSWg2PJ7TA1uAfGGlfB8edYWHpOg3Pbh3Bu/1TplXICbrcbTpcBdqcbdocLeTLkYMfe40YYzUGAMQiAqZRT8s/quw1uGFxOuJ02mI1WNLnMiEoxJgSZjTCbDbCYAKOB3oNTyq8eBP9sTC2VEihuAobohjBE1oA7cw/MnT+CfcFQmGrdAkRUhvvQAgB0HztgKNcZzh2fAFadp1TcbRII+VMkuMSbYIDD5YbLBXACIz/n/AOfPd+BUPkALqPYfZkbckIEmAwGmWtgMgJm44nPThMHOsQQwK2tRVcCF0jAWPdWGGKawL33W5javgznhtfgtqbBENkAxgpt4M5Lhzt9A0x1boJz2ydwJfx6gVfU00sKAREB/8xLcFMUcGLiP+nEyLYmfyNwyjRSKZqBHgX+cR4IxUFBBVYPgr81o5ZHCSgBJRAYBDxCITBKq6X8F4GzCQPPgSoQ9KZRAkpACSgBJaAE/kVABYLeFEpACSgBJaAElECBAsGVus0Nd0HrWRWYElACSkAJlGYCJ1YuuGA2XfzVCU6nE06XE0EWro4o/mS1WhEcHFz8FwqUKxjMMLhcLvfJwAiBUnAtpxJQAkpACRQ7AREITifMZnOxX+vMCzgcDrn2xTLaeXl5CA0Nvej19OcLqkDw59bRsikBJaAELiEBFQiXEL4fXFoFgh80ghZBCSgBJeCPBFQg+GOrXJwyse0Nbolwce60ePEq5OTmon+/7uc7VL9XAkpACSiBEkJABUIJaUgfq3FegeByudGtx3Xo368bHn9szL8uY7fbkZWVhbi4uJPfbdu2DTVr1kRISMhpx/NmW7BgAa644op/5WOz2ZCamgq+VqhQAUFBhZ+YsmvXLsTHxyM2NtZHHHqaElACSuDSEeA4OLfcdblc/3p+nloqPieNRu68Z5QohjynONLZBALLyblrnB9w5hw2z9wBPsM93/Gzws5jONcchPz8/AL5sLw8z2KxCA5y5P/J53yMzjYHgddiOtOenY83r832YWIZOAkyPDz8fKfJ97Srnjp4dcI/dfVc72znkE92drbsw3AqD/EWnBFK0SsPQmJSCq4devdZBcL333+PL7/8Er/88ouUady4cVKAwYMHg2CXLVuGpk2bYv369bjlllswZcoUEQjz5s1DjRo10K1bNznv/fffR5UqVQTgkiVL8NRTT+Gbb75Bo0aN0L59e8ycORPp6em49dZbsXXrVqxYsQJDhw4ViMxzxIgRWLhwIRo2bChwV69ejVGjRnnLVo9TAkpACVx0Ajk5OUhMTJRnFp99a9askYl5R44cwZ133gl+z+dd7dq1Ub58eelA/fjjj2jcuLEcn5SUJM9NPtx5Ho/ZsmWLfM+8GjRogEOHDskrj2Fel112mTxL09LSUKZMGSQkJKBcuXKIiYlBdHT0aQwKEggsw+LFi+V4j9GsU6cO9u/fL2VgmdnZ69q1K/bs2YP69evL875z586Iioo6mT/tA/NiioyMPKvQKGiSIm3D9ddfj02bNqFixYqIiIjAgQMH5P3s2bNx4403IiMjAxMnTkSLFi2E37Fjx1C3bl15ZT1Z91NTQQIhOTkZc+fOFWbVqlWTV7YNDawnn8zMTFSqVEmEGplWrVpVWLAzPGDAAFSuXBnjx4+Xz2nA+X+PsGLb0z6yXfg9hQTLffjwYeHHtmzWrJlX9+XRo0el/kxscybmuX37dik3yzxjxgyxmRQr/fv3l89Y70WLFqFfv34nBY3nguedg3AugUAgFAaXX345Nm/eLIb6ww8/FOM+duxYEQdXXXWVXHzQoEGgmGCFW7VqhbZt22LlypUCgTfnhAkTcNttt0m5qLwmTZok57Jx2rVrh//+97944okn8Mknn0gjs3K85mOPPYY///xT/n/PPfeIQHjvvffw5JNP4tVXXxXhoUkJKAEl4I8E6G2lkaSBpdGlwaARpRH6+++/5YF/77334qeffkKvXr3kWUdB8PPPP2P48OF4/vnn8cEHH8jzks/jnj17ijjgs5H58RnLZyE9vOy40YDt3LkTffv2FU/rG2+8Ic9VPidpSGhQT00FCQQaF16b5aAxe+aZZ0BDyh7pjh07RIzw+vyexo2GmEab9Rw2bNjJ7FmWt99+Www4O5Rn9n7P5kFgJ5Q2gF7qd955B7m5uXjzzTexatUqyYs2ifmR2axZszB69GipMzuRtC20UQ888MC/PAIFCQSWmfVjO7B8bIvPP/9cxFmtWrUwf/58PPzwwyKIHn/8cXTs2FE6sWy7r7/+Gq+//roIn7feekuOO3jwoIgoMqTIefDBB/HVV1/hmmuuETv466+/ilGnnezevbt0sikuWL/zJYoCnss0depUESGsN+0qBSHvMXa0hwwZImUZOXKkiDfec2z73r17/6vtzy4QnE4gIwOJTvdZPQisJA13nz59RATwhvzhhx/kM1aOjcHhAnoErr76avE07Nu3T2DUq1dPVBKVHJUZbxQW2lM5Khv+IP744w8RIN99952IAQLl52yATp06iRhhI9Ercd9990m+bCh+xx8AvRaalIASUAL+SIACgcaGPX92qPiQp0DgA5tGnc9QPiPpbeWz9YYbbpBeM4+h8V23bp10oL799tuTAoFGgQ9+dq7oueUzk71GGlweTwNOY8ihYV6Hz112qjZu3CiGxRuBwJ4oy0cj+NJLL4mBpKFh2fjsp0BgB+/dd9/F3XffLV4Kioczvbo0XPRCFOS+L0ggULBQFNGz3LJlSzF4tCnsqfPavBY9J3PmzBFh8OKLL+Laa68VI017RY81vRm0DQMHDjytrgUJBIqq3377TXjRM8K2Yl1pzClMWGd6J2h86dlhu7AM7M1ToHTp0kU8BORbtmxZVK9eXViwvmyL+++/X+pA8UExws/Z5jTuHTp0EGHFctJGni/x3lm6dCmaNGkirxzioUjzeEtYRgpJDvXQ68F2Yvu3bt1abCgFw5nDQGcVCPk33QTk5yHj2ecxdOwLePqpe9D7is6nlXH58uVy0xECK8IbjjcMC/Too496LRDo/iCsZ599VlwevKFZWd6s/I6N/PHHH4tAIFDOM2AD0PtAYUJ3DgUBlTM9CI888og0KI/3DGGcD65+rwSUgBK42AT4/KTx8hgI9i75nq80FjRqNER8pnrGsNlr5zOPPXMaKxoxPvvYg+fzMyUlRb6jQePQBd3vNDq8DvPyGAHmx3X//PMce+b8rYI8CB5XOvPje5aN+dNFTWM2ZswYsQs0cvQSME/Wh5+xfN6ms3kQaEgpeJgne9geVh5OHHZhr5k2iQKEhtJTFpaVxpGG/kxRUpBAYP3Im/UjR75nHShKaLSnT58u3goOkbAcLBtFAo8ne37GazFvthNtF6/PfNkOzIt1YNnZDp77geXl9yw/8/NmPgKvxfuB12Pbst5sV3pO6KHn0AbL5MnTIxSYP487c5jnnHMQbG+/DdhsyBs5Cl98OwcjR16N8uXivW1bPU4JKAEloAQCnICuYgjwBrzA4p97FQOHGYppduwFlltPVwJKQAkogWImoAKhmAH7efbnnaTo5+XX4ikBJaAElEAxEVCBUExgAyRbFQgB0lBaTCWgBJTAxSagAuFiE/ev6xmys7PdBU0c8SLAon/VpJhKU1AAiWK6lGarBJSAEvArAnz+ccLd+YIMFUehOemO1/Zmgl5RXL807+ZY0IaNnDxpcDqdEmqZDcGb4dS/ooAe6HnoDl+B3oJafiWgBJSAEjgXAQqEU/88MSlkiMHjLfCIA2akHoQTOLn8pDBLc/Q2VAJKQAkoASUQSAQ8HgSPSPCUXQTCqRVRYXB6s6pACKTbXMuqBJSAElACvhI4c6jh5CRFFQYFI1WB4OutpucpASWgBJRAIBLwBMH61yoGFQqnN6fOQQjE21vLrASUgBJQAoUlcFYPQmEzKi3HF+RBOJRkx75jdnRpHIapizIxvGsUjIaCiSQkO7D7qA1dG589xOgns9Mw5spYOJxufPFruuQ9slc0PvgpFZ//34nduRJSHNi4x4r+bbzbLrS0tI/WUwkoASWgBIqegFfbPRf9ZQMrx4IEAo3+NwszMHZQLO7/9Dg+vbcivpqfjmCzAc1rhWDe2mzUqxKE/cft6HJ5GL5dmomYMBPuGhCL8b+lo1G1YMxYloUa5S24rlsUnp+cjGdGxCM+yoQV23NhMRsQG27Cc1OS0fnyUHCb7sHto7BprxUt6gTjeJoTu45YkZPvwk29YvDuD6m4tU80yseYAwuullYJKAEloAT8lsC5Qy37bbEvXsEKEgjH0xwYPz8Dt/SOxkez0vD8jWXx4/IslIk0omysGWUiTXj/pzS8cnNZ7Eyw4UCiHVXjLVizMw+1KwchI9uFWauyMHZgLGIjTPhyXjqevj4eTpcbielOZOa6sPuIDV/MTcdtfWLQtl4Icq1urNtlRWKGHQPaROKtGSm4qVc0mtUOwaJNOfhtXS7+c0vZiwdGr6QElIASUAIlmkChIim63QCXPJzNnV4SSRUkENKynUjJdOL7ZVloXjsEPZuFY+Jv6UhMd2BE92hEhBmxJ8GOxVtyMaRTJFKznCgXbcb6PfmIDDXC5nBj71Ea+nCEhxrxy6psXNEiHFHhJsxamYXQYCPKx5gwb20OmtYMQZfGobDaIEMVdSsHITnDicWbcuACcGufGPywLAvpOU6MGRBbEptA66QElIASUAKXgECBAuG3ddnYfsiOqmXNuLpD5Mlicew9I8eFy6sHX4KiXppL6iqGS8Ndr6oElIASUAKXlsC/BAJ7t/PWZOPKtpH4aUUWZvyZhR5Nw3A0zSHub062m7owA8O6RGHS7xm4+YoYOb51vVDc0S/m0tamGK6uAqEYoGqWSkAJKAEl4NcECpykyHHwyQsy0bN5GH5bl4OlW/Pw7p3lMX1pBuIizTLDPt/mQv2qwfh6UQbeG10eCzfmIibChEHtImRCXUlKKhBKUmtqXZSAElACSsBbAgVOUuQ8g4178tGsVsjJfOwOt8yuZ7La3LBYDCfnIuTb3AgJKmHK4J+aq0Dw9lbS45SAElACSqCkENBljl60pAoELyDpIUpACSgBJXDJCBRFgMOCdnQs1CqGS1b7S3hhFQiXEL5eWgkoASWgBM5J4NSdmH1FRXFwcgfHf+YJiAeBmzUVpBx8vVBJO08FQklrUa2PElACSqBkEKA4cDidmL40+8QOzPwrTPpHDESEGNGvdQQsZuNJocBsVCCcB6YKhMLcbXqsElACSkAJXAwCFAQUCL+vy8J7s7Iu6JLUCV8/HI+IsCCYTCbJS+cgeIFUBYIXkPQQJaAElIASuKgEaMAdDgfm/pWFT+fmXPC1Jz8Yh6iIYBEInlEFDbWsHoQLvrE0AyWgBJSAEri4BCgQ7HY75v6Vjc/mXbhAmPRADKIiQmA2m/8nEHQOwrkbtSAPwq5du/DII4/gxx9/POmKufLKK/HNN98gOjr6vHfJd999h6ZNm6JevXrnPZYHbNmyBcHBwahTp44cv3DhQkyfPl3GiipVqoSHH34YM2bMwA033HAyv7fffhvNmjXD8uXL8cwzz5z3OiNGjMAdd9wBi8WC+Ph4PP300yhfvjwaNmyIa665BrNmzcKmTZvwwQcf4Ntvv8W8efMQGhqKxx57DNWqVcPRo0dxzz33oFGjRnjxxRfx6aefYvPmzcjOzsZ7772HmJjTg2h99tln8v2xY8fw3HPPgeWdMGHCecvpOWDmzJmYPXs2wsPDMWTIENSqVQv333+/8ChbtqyUf8yYMfj8889P5tm1a1csXrxY/p+WloY///wTc+fOxWuvvSZtuWjRIqnTqFGjhDc/L1OmDC6//HL07dsXvOZDDz0k53/88cfYtm2buOE2btyI8ePHC2eWZ+DAgejVqxf+7//+T/JjIrdPPvlEzsnJycFHH32E3bt3y3ncUrxTp0648cYbva6/HqgElEDpJnAugWAyAg2rnYh4vHm/VV4bVw+WOEZWhxsMW3BmUoHgw/10NoFw88034+uvv0b16tXFuO3fvx8vv/wyxo0bh7Vr16Jz586oUqUK1q9fjzZt2mDVqlX4+++/RRTwj4bzjz/+AA0zv3/jjTeQkJAgRnr79u1icPfs2YNbbrkFNKZ0JdHQVq1aFWPHjpVrhoSEiHHasWMHXnnlFTzwwAPyfx4bFxcnhm7q1KliqHj8E088gdGjR8PpdOLVV18Vw85rvv7661ixYoWIm/r16yMsLAyPP/64GL9Dhw6JsczKysLkyZPF0A0fPhwTJ06Uc1evXo3rrrtODOYVV1yBKVOm4KmnnsKDDz6IDz/8EAsWLBAhw/KwDBQgzz77LF566SW8++67IN/8/Hy88MILIiKSk5Px3//+FzabDY8++qicy7w3bNggHMibn0+aNAm9e/cWMcDzfvrpJzn3tttuE6Hy1ltvoVu3bqhduzYuu+wyaRsKpsaNG4s6pjHPzMzEb7/9JsdT3DE/CoKoqCgcOXJE+LLc5MM6ky8FAAUD+TCxvSmoKBp5T0REREg+FDvLli1Dv379EBkZKe3NelC4sN3/+usvETM9evQQ7hQHFCAsN4UT271nz54+3LF6ihJQAqWBwLkEQliwETf2iMKC9TkiBiJDTRjWJRLv/ZSGewbGykaAx9Icp2HyWiDwQUvXRVBQkDwgPYm9LvZ2KlasKA9uTpDgw5Z/iYmJJ8/hA1MmOJwSVpHvT12r6fm/v6+gOJtAoMGiwaaB4YOchpcGkr1hGvD//Oc/aNu2rRg/Guq77rpLery33nqr9BZpcHkcDQ/FAQ0M+ZDj1q1bxbj1799fDD8NCY3g1VdfLU1BEUCjRWN19913S++5T58+YpBonGiU2bO/6aabxGDTOPE6/JwGkNf/+eefxVDzmvQO0IjSqNFA8ZoUM+XKlcPKlStFPDDde++9IhCuv/56ER4UCDR2HTt2lLxZN3oP+D29JGRBY8fjmC+PoeeB5aRXhGInJSVF2Hz55ZdiPPkZjSp74Kw/PSAs//Hjx+Xzw4cPo0GDBnJ9lp33ZPfu3eVYelIofujNoWhhvvQg0JtRt25dESH0ILBs5E8xwXaiQKCooWuNHo2hQ4cKa4oGsmG+5MZ86FWgOKABZ1l5PsUOxQ89GBy/Y3koBt58803ExsaKiPrqq6+wdOlSuWZSUpIwYttQ7LAsZEePDduf3gpypiDRpASUgBIoiMC5BEJ4iBEfja0gmwpyK4StB624b1Ac3pyZgnuvisNzk5PO60EocJIie598gLdu3Vp6vRQLdDPzIU9jScHAY/hw5IOvS5cu8v6HH36Q93zY7dy5ExUqVBAxwQcuBUXLli3FWPC7ypUryzkHDx6Uhz0fvv6aziYQaMTZ08/IyMCwYcOkbux9041Mr4Cnd8/eJkUQe7jvvPOOGDD2FJs0aSLH81z2bul1YGLPmYzYG+WQQkECgR4DnkuvBUUAe/M0OAUJBBo0ij0aIhrIa6+9VgwR+TMPeilo2GjUWAYKjAMHDoh4YPLcBxSEBQmEJUuWiJuc9wV78yzbF198IV4A/q1bt06Mnkcg8KYjKxrd+fPnS315fXL2DDGwV02BwGszsQdOA3vVVVeJN4P3EgUaj6Ox5fAK8yIr3qsUTyNHjsTzzz8vAoH1okeAZaBAoOeAn7MMHoFA0UXhRLc/BRHbx+NtoLeFwyz0WvB4lpNDKRw+YF3I/kyBQG8Lv+e9zXLQo0SvAcUF86dAoweHvCnEeM9QIJEDxSHvE89sYn/9bWi5lIASuHQEzicQ3rqjHA4nObB2Vx6a1wpBdLgJb1EgDIqTbRJ2Hrad34PgPiMEE40/hQEfgHxo8mF25513ijGnR4E9Oj7waVw4Js2HHxN7WjRofHCzx8ceHR/KHG+lm5r/54OaD1Q++On65UOfD1f2gP01FSQQaEQoECiION5MI8nhhkGDBokRvv3220UoUByQE8e+Bw8eLEKARonf0wCxV8ueLo3G3r17xfiR7b59+8TrQEY0SK1atRLj/+STT0obsGdOt3SHDh3EGLJHTKPCcXS6qtlL57E0kt9//730dmms+coxd55HcUeDz8TPaZx47fbt28v8BhpD9sA5Vj5nzhw5jkMV9JqwHhR2v/zyixg2jyucQoTGlOVjOdgz53V5DvPi8Mn7778vQw/0cHAYgsMMnDtB7wp72xQuZNuiRQvhYbVaRWzyPqJBpXih4WadeY/yGIoXehjoTWDPn/lTGPHeYlnYw+d1yZrl4/ACj2nevLnwoxeG7UYjTvFAQUtPBcUu60ZmzJcChGVmfSg2mJ9n3gkFCtucx/EeZ33pAWA5yJB/PIeeHvLkXAbWOT09XYQVh09YFh5PzxIFJa+nSQkoASVQWA+CL8TOHGI46zJHPhxTU1Ol58YHJo0Ze8s0/HRF0+DT7U2vgqeXx/fszdHtTZFBo09Dyh4iH/zMh68eY0ZDwHNq1qwpY77+mgoSCDQcfLDTcNFg0ZDTqHPOAY3smjVrxBBQIHFMmj1EGjoamgEDBsjnZEG+dDvTKFOI0evAY5k3ufB7uuIpNGj0eZyHFY0z2VJ40ENBUcfz2QbsfVOoMQ8KO55PMUfDSuNFzwPFjCdRCLI9WEYaRyb2/NnOLC9d70zsAbO9yYTlpkhp167dyXw45MT8OQGTHCgmWWZ6LDjUwuEI9vA5j4CJgoZl5P3FYzk3w8OO35MXh6soFtij5iRC1p9DN/ROsQy8icnaU2bWl0M9vA/pLeB5vBd53zI/lpm9eoozJk4a5HvmRxFGwUFvCuvCsrCtOGRB1uREEUKBxXyYP4WZJ3E4hm1HzwaFHMvCPDgEQwYsKw0/xZVngiqHXcidYpPtTe8R/8iVddekBJSAErgUAoHX1EBJ57n3NA6C/jiVgBJQAkrA3wgU9TLHyQ/GyjJHTxwEDbXsRYurQPACkh6iBJSAElACF5WAJ1DStv25eHJy5gVd22gAJj0Yh8jwMwIlaRyEc3NVgXBB952erASUgBJQAsVAwBNq2Wa3IzvHKsOpvuzqyCFqi8WM8LBgWMxmDbVcmLZSgVAYWnqsElACSkAJXCwCnCvFP4oDz66Ohb22ZydHzjXjhO/TwhOcuYqhsJmX9ONVIJT0Ftb6KQEloAQClwC9Bp4/X2vhiWd0ZlwinaR4HqKclX5mmGBfG0HPUwJKQAkoASVQHAR8GV7wlKOggIVeT1JMSnfis1/TEBVmRIOqwbiiRfi/6rd8Wy46NAyTWM88LiffhdRsJ5rVDDntWMaFZkzogpLN4YLdAWw/aEOruqefVxxAvcmTgaK4VJFLCDUpASWgBJSAEijpBCgO6D33yoOQkOzAkRQ74qPN2HHIhp0JNiSk2PGfm8vi7ZmpGN41SkI59m8dgdV/50nEpuQMB4IsBjH2QWYDujQOw/SlmRLRKSnDiex8F7o3CcPCjTlyvMVskPeD2kUiLtKEDXvyAQPQum4oJv+egbuvjEWlMifW41/MRIHAcRmPC8czznMhau1ill+vpQSUgBJQAkrgXAQ8HgTPHAS+yntv5iBQIOw9ZkN8lAn7jzuQmO5AyzohslvU7qM2rN2Vj+hwowiE9Gwnpi7KRHq2C0O7RGLpljxY7S7EhJswpFMk/tqZLyJiYNsIREeYwF2nFm3IRVa+C4PaR8JsBPYctYtAyLO50LtFBMpEmTDnr2xc3+3iB1SiQPCEvD11rEcFgv7glIASUAJKoCQQ8AiEU+cieC0QEtOdCDIDMREmLN+Wh7QsJxpeFowqZc344MdU1K0ajLgIEzo0DEVOngu7jthRrZwZuVYXEpIcyHe40LFhGMbNS0freqGw2t0iJNo3CBOBQA8Bz7u9Xww277OicrwFu49aUTbSjPJxZhEfy7bloXcBQxvF3TinCgRe61RhoCKhuOlr/kpACSgBJVDcBE4VCLzWSaGgcRDOjZ67DeqmOcV9e2r+SkAJKAEl4C8EVCB42RIegeBRWOo18BKcHqYElIASUAIBR+C04Qb1IHjnQTh1GQhFAjfWUc9CwN37WmAloASUgBI4gwA3jOOGdRoHoZC3RkEeBO74FxoaWsic9HAloASUgBJQAv5J4ExbJ8MM3qxi8M/qXJxSnQmNyxwpEMLCwi5OAfQqSkAJKAEloASKmQAn5DPc8mlDDCoQCjfEoAKhmO9SzV4JKAEloAQuOoECBYLOQVCBcNHvRL2gElACSkAJ+BUBFQg+NIcOMfgATU9RAkpACSiBgCJwpkAoMFCS2w0cTXWgYpwZqVlORIQaEWwxFFjR42kOiXJoNhX8PcMpR4QYAwpciWQbAAAgAElEQVTSmYUtrEDgbFCubvAEWCpTpoyErNTknwTYTvHx8f8qHFeqcAtVjsmdL3HYKTs7G1FRFz/S5/nKVlK+92xr62kPz4xrb/ZI4W+Yv8OCUk5ODsLD/723TEnhpvVQAt4SOFMg8Lx/TVJ0ON34z7cpeOTaMvhibjqu7RSJ7xZnYnDHSGw/YIPBCBxLdaBGBQsOJzuQlu3EbX1iZB+FfJsbreuF4JuFmRJ2edz8dDw7Ih7vfp+KF0aW9bacfnVcYQXC4cOHZXOnOXPmoGfPnti+fTu6devmV3XSwvyPwI8//oj+/fsjPz8fCxYsQPfu3UXc7dixA507d8ZPP/0k7Ve2bFmsXbsW5cqVk0k8devWlc1MtmzZgsaNG8tr69atFW0xEbDZbKAx37lzJ44ePYrLL79cxNumTZtQp04dUJhXqVIFv/zyC3r16oUDBw5Im/GPxzdo0AA///yziEGe+/fff6NRo0bYv3+/tCcFSKVKlRAbG1tMNdBslYB/E/BqkiIFwsKNuQgPMeLdH1Lx/pjyWLQxF8fSHahW1oI+LcPx0jfJuL1vjOzBULuSBcfTnGjXIBRPjE/E/VfHiddhwvwMtKoTinYNQmT/hTZ1QxAbafJvQgWUzleBMHv2bPTr1w/r16+XB5Ym/yRAAUCBwHbm1t40Enz9+uuvcdttt2HKlCno0KEDli1bhmrVqoGGigblhhtuwLFjx/D555/jwQcfFCGoAqH42tgjEFauXCkeuho1aohAmDBhgqwq6tKlCzp16oRFixaJKODDjsfefPPNSE1NFYEwefJk2ZWVQoL/37p1q2zlvnTpUjmG7V2+fPniq4TmrAT8mIBXcxAoELYesGLSggw0rx2Cns3CMX1pFq7uEIF1u/PFM/DR7DTUqxKErBwXWtQOwd8JNmw7aMXqv/Px6s1lRVyMn5+OcjFm2WDp/Z9SMaxLtIiJQEuFFQjsVfLBxZ4J3dT16tULtCqXqvLu27dPvAIWiwV79uxBxYoVkZSUJCKAhmTv3r2oXLmyfJ+YmCjLWzlkxJ4ohxX4GYUDRUVBQxWlCmYxVpY9fIfDcbJt6KVjGyUkJEjQMrYP25GijSKAXgMKBR5H70J0dLS0JcUF25jnsd0yMzNlKMlut4v3wJshi2KspmatBC4ZAa8EwiUrnZ9euLACwU+rocVSAkpACSgBJXBWAl5NUlR+pxNQgaB3hBJQAkpACZR0Al7NQSjpEApbPxUIhSWmxysBJaAElECgEVCB4EOLqUDwAZqeogSUgBJQAgFFQAWCD83li0AYO3asTIx67bXXMHPmTNSqVQsHDx6U91xqxYlSI0aMkFnVjz/+uEyY+s9//iOTpph47qOPPipLsR544AG0bNnyrBPgOHnro48+wqxZs/Dss8/iq6++kvPffPNNfPjhh5IvJ25xxjaXXTINGjQIP/zwg8zw5sQvHjtmzBiZjPfCCy/Iyou+fftK+fg3YMAAOW758uVy7PTp0/H7779j/Pjxks/cuXMxY8YMsN7k9emnn6JChQo+0L74p5AR2c2bNw9PPfUUnnzyyZPr4v/44w9Z9uiJTc46V69eXdrz1NS7d2+MHDlS/sjtoYcekglzzz33nLQd/3/ffffhyy+/PO085t+8efOTS+vY5m+88YYc884778js+qlTp+LVV1+Ve+GTTz5BXFycML7++uvx4osvykTKW2+9Fd99953MyNdUtAQ4+ZSsOTmVv19P+vPPP2XVBBMnqnIVxLhx406236ml4AqMxYsX44orrijawmluSqAICegkRR9gFlYg/PXXX+DMeK5e4GzptLQ0mR3Ph8vzzz8vs6VpsPlAocHm2nrOtuY6fBpxvg4bNkwMA8/nDGvmQSHQqlUrMczNmjUTo0VDfuWVV8rsbM7Srlmzpqzl5zVo2Giwufzr6quvxrRp02SmN9fs09hwmR6vR4PDdeQsE409P3/ppZdQv359EQ1HjhzBhg0bcPz4cdAQcoUGBQCXcDIWANebN2nSRMQCH4ScCU5BwfXoLDtFiD8nPrjZxlw2x7p27dpVZr4zUfj06dNHBBjFE2e4U3yxbSkqaNAZ/4Csfv31V1lu165dO1ku9+6778rserK65ppr8PLLL2PixInSjoyRwXgZFF1s74cffhjffvutBPNhG2ZkZMj1KUQoxtj+LAfLQFHBa3N5H18pLu+66y5pby7xK6mJ9xaXlO7atQtDhgyR+52/NQqyVatWYffu3XKf8z35UTTxnl+zZg1uv/12aSeubOjRo4fcy+TOWBe1a9fG6tWrMXz4cFniyjZnu1133XXyG+VyZcbDYJ4UbG3btpXfF8tRtWpVyYu/QZaNZezYsSMoHgYPHiwxG/j7GDVq1Ml82Za8Fu8VTUrAnwioQPChNQorEPhwYOJDhFtCsye9bds2edCwh8/82MvnA44PGxpoGlUaHq655zE0Igzgw0AuNGDswVB0fPHFF/Kw47HsjVIA0GDzQUVj/Nlnn4kxYq+HRp892Pfee096xzRuNCI0TjSEo0ePlocbjT+NEg0kRQwfoCtWrJBXPhS5xv/7778Xg8TPKDJo2ChQaPDYK6JgoSFkPlzqRwP6/vvv47HHHvP7bbGzsrLEEHBZKg00PQRnCgQypFhjpEQabXqG6PmhQGIiN4o3j+eFBoDxFZ544gnce++9Ynhuuukm4cXrsZ0oKO644w5pE8/ae4o79kppRNhGbEN6ZhggiGKSAoHCgl4G5sXv+P/7779fgjmVZIHA+58eEv6+GOiI9y/bijEqKG5pxMmRvfgbb7xRvqN3iEKW9z4FGoUU39NTxN8jvWW33HKLCGy2F8UGf0f8fVGEUFywDfgbpBjhvU4vDvPhMWwr3uOvvPKKiG16ANl2LB89QBSOXBLLsvDhS+8hhUeLFi18eBLpKUqgeAn4LBAYMZHhlq12NzJznPK+Yhkzdh62SUjm0GAj8m0u2BxARIgBMRGBFxDpbOgLKxBo3PmQouuXDwiKBA4vzJ8/XwwovQMcYuADpWHDhnjrrbfE8NKFyQcIj6fh4Hv2hng8g/RQBNCYsKfJXg//z0AwdGGzZ8TeCx9EPI8PIIoLGnU+EJkfxQVDytINvmTJEjE4zIsChsaNHgAey6EPPizpZbjzzjvFMPI8urMZ8InHU0BQJNBTwDKwzLw2r8EeNB/a7N2yXE8//XTx3tUXmDuNCONV0IBTKLB+5PD222+LcKMBIUf2Bim+yGPjxo3Cn54TCgt6Sxh4h+1DjhRP/I5GjcKLbcR2pqeAxp6eGhoc9njJ1hNgiQKjadOmcj7bgD1Z3jMUW/TeUFCybDRcFIG8D+h9ogDk/VbSI3bSsFOk8TdBBhQFkyZNEsPM+vOeJFv+rijS+BsjP4ptGncaen7H3zS9ejTmzKNNmzYiGNi+ZE0RTNHFRBHG3yt587o8l0KM7cRzeN2hQ4eKp4BCkF4GtmlQUJC8skwULnwGsJwMwEVxqUkJ+BsBr0ItF1TokwLB5kZGrhPj5qZjUPtIvP19CsrHmnFXv1hUK2/B53PSZG+GuwaUnHClhRUIHn40Op6x63N9xu8Kc+zZbqpT8ygoP2/OO98Ne7Zr+Hrt813vUn9/No78IdEDRENyZioM+/PV71xcSyrz8zGh14vCiYL61HQqDwYrowufhv1ciUMMFPHnShyKYJRMGnuPx+h8ZSzKe+B819LvlUBREfDZg+B0AdMWZaBx9WC4AazfbZUIix/8nILuTcNRvbwFDaoFY9bKbNSseOK9seD9m4qqLhctH18FwkUroF5ICSgBJaAElMAFEvBZIPyvBwwYSojh95alCgRvSelxSkAJKAElEKgELlggBGrFL6TcKhAuhJ6eqwSKhgDnfXC5J+fNaFICSqDoCahA8IGpCgQfoOkpSqAYCHgm2xZD1pqlEij1BHyepFiayalAKM2tr3X3JwIqEPypNbQsJY2ARlL0oUVVIPgATU9RAsVAQAVCMUDVLJXAPwRUIPhwK6hA8AGanqIEipgA40Y88sgjJToYVBEj0+yUQKEIXNAchJRMJzJzXahR4d9rv89VinybG8mZDlSJL9x5hapZMR5cWIHA6IMMJMSALlwnz1fPmm0GDmJkNgZPSUpKksAqfOVnmi4NAUYv5Fp37omQl5cngYeYGKGQwaYYaZLRExmtj2vrGQGRwaa41p1Bkth2DLrDwFJXXXWVBLdi/AtGPWSAHEbmY2KAI01KQAkoAX8lcEEC4ZVvkmWN472DYvDE+CRc1y0K0xZnomvjMESFmvDn1lw8fG0cMnJdSEh2YMnmXBxMsmN0/1gs2pSDg4l2tKwTiuu6RsFo9FdE/y5XYQUCIxoymhuNCUP3cu8DBmxhJEUGeGHktnXr1omIYAx3ho8NlI2NAqfVvC8p26F9+/bIzs4WY84IhtyPgdEhGXGS0QkZLpfigd8z7DQjTLKNGWqXkTMZmIfij9EpKRAo/Cg6GF2PwXUoFhgSW5MSUAJKwF8J+CwQ8qxurN+Tj7JRRkz5IxPPjIhHWrYTx1OduKy8Bfd8fAz3DIpFjQpBSExz4EiqA7sO29C4RjDqVgnCqr/zsWBdDoZ3jUK7+qElWiDQUNArQIOQmZkp3gMaH4bdveyyyyROO40Sw+pyLwWG6eUGSZouDQHuTUEPAb0BbKtNmzbJ3hfcj4HfMdIe95egUGQ0PbYXPQj0PHDPCYbPZUhfehgYepoCgeKCApE/ON4LDKmsSQkoASXgzwR8XsWQleeCyQi4XMDhZDtCLEbERZqQnOmUvRcSMx0wGQyoWTEIiekn3ufaXIgJNyEqzCifGQ0GON1uVI63BFSUxcJ6EHgDcKMd9jrprqZg8Ozc5hlqoGBgj5SGh7H5PZv1+PPNU1LL5tmsiTH1GcaXwwNsN3p96A1i+9HDw1j8/MwTW59DDGxnth1/WPQkMA+KQh7LUMzceZO7MFJYaFICSkAJ+DMBnz0I/lyp4i6bLwKhuMuk+SsBJaAElIASKEoCKhB8oKkCwQdoeooSUAJKQAkEFAEVCD40lwoEH6DpKUqgiAlwuGf69Ono37+/DNnY7XYZ1uEQEYfsOAzEVUOc/8EVJRwO4mRRHsfjOZGUK4r4arVaZQiQw0A8l+95PPPjd1xx8ttvv8kkVB7DlUmcTMxXpkOHDskEZOavSQmUFAIqEHxoycIKBI5Ne5a28aFz5pbPLMKWLVtksmJByZstaH2ohp6iBAKaAAUCl55yMikNN1ebcCIwJ4pSBPzxxx9ixG+55RZZJcTPOEeEv0euUuGKknbt2skEYSbm16RJE0ydOlX+zxVFTJs3b0bTpk2xcuVKBAUFyRySb775Rq65Zs0amTvUoEEDmT+ky5MD+pbSwp9BwOdJiqWZZGEFAg08H1x8gLDnwt4JEx9YfM+HDnspTDyOvRYmzwQ4PrBuuumm0oxc664E/kWABp3Gee/evTIZlMuGKb579eqF1NRUMJBS27ZtZVnp9u3bUbNmTVmFwknA9Drw2NjYWPD3Wbt2bZlIyqWo27Ztk9UrFAX8vdJz4PmN1qhRQ/JJTEwUccLj6YHg9TmRVZcn641akghoJEUfWtMXgeBZwUD35bRp09CvXz9Z0vjAAw9Ij4c9Ea6xHzp0qDzE+EDiw4YPt7Vr1+K5557zoaR6ii8EaEw8iT3QihUr+pKNnlPMBOgJ4B8TjT0FA//P3w49dnzPFSY09nyl4KYQ57EcemDi75LfeYQ5z6HRZx78jMdShHi+Zx7883zGPHgOv+c1eZ4mJVBSCFyQQHC53cjIdiE20nRWHkdTHSgfyx+mG6EhARQN6Rwt7ItAoKEpV66cPJAGDRqEe++9F6+99ppsVcueCN2Y7Mkw8h6PZY/k7bffxjPPPINJkyZh1KhRJeWe8/t60GB4EtvL4/Hx+4JrAZWAElACRUjgguYgfPpLGvJsbozoFi3xDJwuN9bvzkeTGsGoUtYCk9Eg0RTb1g9FaoYT2w7ZUKeSRSIrmgxA3arBWLszD6nZLjSuHoxyMSaY+YWfp8IKBAbM+e6776RW7M0wqA4nNXHYYMSIEbjrrrvEg8DjKB44vskeCb0J7733ngRT0sA6fn5TaPGUgBJQAiWMgM8CId/qxpMTE2GzuzG4fSQ6Nw7Dul35GP9bOl69uRyCgwyIDDVi3pocdGkchowcJ46nO7B4Ux4OJdkwuCMjKIZg1Y58VC5jxuxV2RjZK1qCKPl7KqxAOFt9GHBH3df+3tpaPiWgBJRA6STgs0DYfcSG0OATxnzZllwcTLajZ9NwfPBzKhpdFox7BsUh2GLA5N8zkJnjwsD2EfhxWZaEYW5TLwRTF2bi/mvKYM8RG35ZnS2f920VgdCgkudBKJ23ltZaCfgHAc7t6dKly1kLc/DgQQmPfbbEyYsc9jszcc7Brl27ZOUC5yV4kucz/v/PP/8EJzbyQctJj2cmhvHmyglNSsAfCRTJKobcfBfC/plfsPeoTcIrl+RUVB6EksxI66YELgYBrvjhn2efE8Y14Oog/nE4j5MSuWEWDTWXODJOAScV8ntOKKTx5yZbXArJYxkCna/8jhMUGWo7ISEBLVq0QFpamqx6YOISScZAiIuLw4wZM3DffffJ8cz7zTfflAnIXAGxceNGLF++XFZW8NqMyeA5jvlwBQb3/fBMsvSEYL8Y7PQaSuB8BHz2IJwv45L8vQqEkty6WrdAIcDlhTTOnKMzbtw4PPHEExLQ6JVXXpGhO254xuWO999/Px577DF06NBBNtZib7969epYtmwZhg8fjpkzZ0rvnudwYy0uR2bPnrus0qjze65suOOOO07GPOCcIooIHnfPPffgrbfewu233y7Hci4RBQJfn332WQwcOBCjR4/Gp59+KgKiatWqUmZuCU7x8Pjjj2PChAlyDIMtaVIC/kJABYIPLaECwQdoeooSKGICfHgx1gG3TOeKH4oEGvKJEyeKIR8yZIjswHndddeJoeaW3bNmzZJIiPz8xx9/xMsvv4zx48dLDIMePXrIEmN6HuhtoOufMQ94HIMxUXjwmhyO4Moibts+e/ZsWSZJccDATFyWzO2/KVZ4DoUJJx5TMHz88ceydJnLMemRoOfjww8/lCXM77//Pp566im5tiYl4C8EVCD40BIqEHyApqcogWIgwBDKFAjs6TNaYsOGDWXYgPMDuKsm5wOw107DzYiJjJzIZcV06dOLwBgjPI6Gm3k1atRIxAGNfuXKlWV1ESOccriAYoT58z2NPD0T77zzjgxLMD96BDhcwMnH9B4wvgnnN3BYgkuceV0umaU48cRL4BAGv+MQCYcbuJW4JiXgLwRUIPjQEioQfICmpyiBEkiA4qOg0OklsKpapVJI4IICJZVCXlLlwgoEPkToTmTvQR8m/n/XeEJgs628CZLEnqFnueqps9lPndTmqTV7tqce4/80tIRKQAmUVgIXJBCOpTmQluVCg2r/W7Xw4/Js1KxoQYOqQbCYT1+yyKioNodblj+emTbuzWfAVDStGez3bVFYgUB3JScz0eXIOPCc+czZzXRhcsyUY5V0LXoiLfo9gBJeQE5ka9asmYg5/tFNzGVudA2zLeli5uQ3tiXHrjmuzaBXPI7ubooKuoszMzPRt29fmQVPlzLvG858p5tbkxJQAkrA3wlckEB4cnwiTCYDalcMwpBOkVi/14q3ZqSgVZ0QbD1gxaB2EVi5Iw/lY8yoEGvG1oNWPH1dPB78LBEMWf7ItWXw3JRk3NUvBgs25OBQsgNjr4zFy9OS8dbt5cD8KTQuKx+EeWuz8e2TVfyCZ2EFAgvN+P7c8W3KlCky5knjwclLHIP88ssvZXLS3XffLUZI06UlwMlmnLDGNvr6669FFHCiG5fQTZ48Gbfeeqssefviiy9EEHBCHNuOk+PYnt27d5dJaBs2bJAd/ygWuC0xJ7xRJBa0Hv7S1livrgSUgBL4NwGf5yBk5bmw45AV0WEmzFqZjdv7xWDPURtempqM4Z2jMLBdBL7+IwP920TAagcmL8jAMyPikZHtxOEUBywm4GiaA1v323Brn2hMWpCBDXutuKNvDBpVD8LMpVmoVs6C6UuycEOPSIQGmdCsln94F3wRCDQcFAacyMT3nMhEI0RDs2/fPpkIRc+CZxMZvVkvHQF6d2j4KQwoCnbu3IlWrVrJZLStW7dK4Bt6BSgMuGcGd//j9sHcS4NDDRxG2L17t8yWZ7uyfbl8jUKB7Xu2bb0vXY31ykpACSiBIhQI6dnOk/smpGU7cSTFgXpVgnA8zQE3DKhdyYKEZAecLsgeDUy1KwXB7nCLdyE8xIjYSCMOHHegee0QHEy0IyXDiVqVLDia4kDFeDMcTiAhyY5ysWZk5rpQv6p/BGDyRSB40HPtNoOlsHdKA6Ip8Aica2KaTloLvPbUEisBJVAwAZ89CKUZ6IUIhNLMTeuuBIqaAL039MxxaO7UKIR8sDHg0ZmJ80Y82zknJibKskRNSkAJFEIguD2brCu1AgmoQNAbQwlcegL8HWZnZ4sQoFDgxFEOBTEaIodyPLEH+vfvjwULFkjIZU4kZYwCTkJdvHgx2rZti/Xr18sQEaMwalICSuB/BNSD4MPdoALBB2h6ihIoYgIUBPxjkCPO/+B7zgnh/ykE5s+fL0KBAY08ex5wxRAFAieKLlq0CK1bt5bwy9dff/3J4EVFXEzNTgkELAEVCD40nS8CgRu40J3JCW6Mxc5obdOmTcOrr77qQwn0FCWgBEiAhp8TSfnHeT1cjkqhwKWmnCzKVy5F5dwfrhTixFLPZkxJSUmy1JjfcXhCN0rSe0oJnE5ABYIPd0RhBQJDtNLdyQ1aHnroIZmcyMBJv/76qwgGbtTC2O4MBTts2DBZ9shNXzRdGgIMlORJNDAa2OjStINeVQkogUtLQAWCD/wLKxBWr14tAoGx3x999FHce++9snSO3oOpU6dKXHeur7/55ptl/JRr5RkzQdOlIcBgRp7EAEdcdaJJCSgBJVDaCFxQoKQ8qwtc7lghzgKDAWCkRMZHWLE9F50bhSEsxCifcZEjYyfanW4kp/N4s3xgNABcAclz820ufDQrDQ8PKSOfyXcuwGg80SSHk+w4nOyUGAkRISc+3H/cDrMJqBxvkeOZeD3mV5ypsAKBZRkzZox4DUaNGiXjpNwuduXKlRJsh27PuXPnyq5xDz74oLg9ubmMJiWgBJSAElACl4rABQkEGnSm5rVC0KJOCFIynbjno2O4tnMkejcPx84jNsRFmBARasS2AzZ0bBgKg/GE4U/NcsJoMiAp3SHREif8loGoMCN6NAuHze5Gvs0Nq4PBmGwY1iUKf2zIQZt6oZi4IANt64WC4iQ+2oTkDCeqV7BIXIUV2/PkO35enMkXgVCc5dG8lYASUAJKQAkUNQGfBUKe1Y3HxyciO8+FmhWDcN9VsTiUaMdTk5JORlIcNy8dt/WNwcFEB6b8noEXRpWVSIoMz7wrwYrth2w4cNyOh4bESSTFdXusuKFbJLo2CcfHs9JwefVgzPgzC++PKS8Cgd6Jns3C8eW8dPRpEQE33Ji9MhsNLwuWIEq5VjfW7MzDrX1iiprTafmpQChWvJq5ElACSkAJ+AGBMwWCbDjocrnc59t18HCyQzZdYsgE9vLZ669S1oIVO3JRo3wQOjQMxZb9VomQWDbGLEMM7RqEIt/qxvQ/M1GnUpAMJaRmOtC3VQQWb84Vr0LHRqFYtjUP3ZuGifjYtM+KwR0isfuIDbUqBmHJllzER5qwdnc++rYKl0iNPL51vRAs2pQr+0A0uqx4QzKrQPCDO1eLUOoJMBQ2gx55wraYzWadL1Lq7woFUJQEdJKiDzRVIPgATU9RAkVMgMsYuWTRk7jaRJcqFjFkza5UE1CB4EPzq0DwAZqeogSUgBJQAgFFwOc5CAFVyyIurAqEIgaq2SkBJaAElIDfEVAPgg9NogLBB2h6ihJQAkpACQQUARUIPjSXCgQfoOkpSkAJKAElEFAEVCD40FyFFQjp6en4/fffZTMYRlTkngyccc0IiowPn5WVJa9MDMOs6dIS+Pnnn2VDn+uuu06CWMXFxYE/FG4rzFe2UUJCAqpVqwbG8+dugtxVcOHChbjmmmvASIxsW0Zg5PbC3IqYOwVqyOZL2656dSWgBApHwGeBkJHjwtFUB5xONxwuoGnN4l1aWLhqFe/RhRUINB40JPv27RPDQUNDw8M1pdwohgZow4YN8hkjLmq6tAS4y1+3bt2we/duHD16FOHh4di8eTP69euHdevWSZsx2mVkZCTWrFmDzp07y+cUegyXTYFw4MABEQfbt2+XrYS5D4dHBF7a2unVlYASUALeEfB5kmJShhNLNudiQJsIzFuTjYplLBJJ8c+tORK4qGy0GUdTHFiyKQePDo/H1IWZeH5kvHel8vOjCisQaGhoZOhBoKFp0qQJ6FVIS0sDNwZq06YNfvvtN9mrgfswaLq0BOhB6N27NxYsWICWLVuKcOMWwlxSd+jQIXDzrcGDB4P3AYUChR7PYShtbhvMXQW5rTC3GmZ7Ujy0atXq0lZKr64ElIASKCQBnwUCxUCu1YU9R+xIy3ahfcMQ7DtqR57dhX3H7LiuaxTemJ6C9GwX7hkUi4Ubc3F735iTeysUspx+dXhhBQILn5iYKAaD29HyfA4x0LDw1TPMoIFe/KOZ6fFh779MmTInC0Qxx6EEvjJxvT2HEPgDogeI4oFCgsdwfT6FHwP57Nq1SzwNtWvX9o/KlaBSkDP3M6FHriC+FGxsl4I222Ibc+iH7cy/v//+W0RgnTp1ShAhrYoSuDACPgsEXtZmd4nBN5uMcDjdEi2R//dEYXQ43LLfgmyedBE2UbowFN6f7YtA8D53PVIJKAFvCHC4jsad3homCmwafnpw6AH65ptv0KtXLxER9ORwa/V58+bJ8NHEiRMxfPhwEXPHjx+XaIycI8JdVH1L9XEAACAASURBVLn7avPmzXVIyJtG0GNKNAGfQy2XaCrnqZwKhNLc+lp3fyFAgcA5IjTy9Ow0btxYBAM7KF9//TVuv/12mfszYcIEdOnSRbw79BDwvBUrVoh44PkegcAhPp7P3ze9DxQJmpRAaSbg8yTF0gxNBUJpbn2tu78Q8HgQYmNjsXXrVjRq1Ag//PCDGPhhw4bh008/xbXXXotNmzbJJGBupc7t1bnl+pYtW8SjwKEiCoSffvpJzh8yZAi+/PJLdO3aVbdc95eG1nJcMgIqEHxA74tA4LwMl9stG05xi2q7042KcWYkJDvkffXyFinJ/mN2+X+dykFel2zHISssZoPk7U1Kz3HB5XIjLrJ4t8X2piz+eMzOnTtlEyBOJl21apVMVORqBLqpOdHUk9hz3bFjhxgSzi9h4rlRUVHSMz1bD5RzFZhfixYtpMdKY8X3nKjav3//k/lzJQTH19mb5fEsDxPnNdAVnpqaKu51lo8rJw4ePIjLL79cxt05pt60aVNZrsm/Zs2aybmcZMmJlZwky2tXrVoVhw8flvesHw0tx+a56oL3Od31NKSalIASKH0ELmgOQunDdaLGhRUIx9McsiSUczGiwkz4bnEGYiJMuLFnNOavzYHd5caAVhEIDzVixtIs9GoehnHzM3DvoFiYTZBdL40G4McV2ejbMhxBZoNsmU0jbzQa8PTEJNw/OA4f/JyKZ2+IR77djdAgA/JtboSFGGG1uRBkMcr1ud12SDDPNSDIAlmmyu+S0h2IjzafmC9SytM777yDm266SSaR0qBysiKNNXunb775pvQ4abjpwr7vvvtkkiL/z/TRRx9J75OTUSkW6MbmhEXGQaDhppCg8aYbfPLkySIM+MclsE899RSWLFkiY+mc4Dht2jRZIslll1zpQkEwbtw4jBw5Eh07dpTVEXSLc1UFjTwFCXvEdKmzt8yJsVySSQHD93zlaourr74azz33nJzLnjbz4XdcYcPPuOqmU6dO+Oyzz0R8sD5chaNJCSiB0kVAPQg+tHdhBcLKHXniLUjPdiIlywmLySiToprXCsGva7MxrHMUVu3IQ9v6ofhsTjpa1g6R7a9rV7KIh4E2u32jMGzYnYdB7SOxca8Vx1LtuLpjFEKCDHjsq0S8fls5zFyahYRUOwa3i8TvG3PgdgNmowFxUSYRAjyvWa1gRIQaERNuwtaDVpgNgMMN2Z571fZ8DGofId+X5nTXXXeJKKArmoadxtzjpuZMd/a62aNn752z53v27InvvvsOrVu3ll48z//jjz9EGNB1XbNmTdSvXx/r168XA87zuRxy6NChuO222+Qzeiyef/55vPvuu5IH3eZVqlQRQUHjzSWX7Nl/+OGHIhJmz54tXoNbbrkFY8eOxejRo2W1BPN56aWX5Bp333235MEy0PtA4cCyMe8ZM2aI6GDQJ9bvq6++kngOFCf0mjBIFMUOPQhvvPGGbqNcmn8QWvdSS0AFgg9NX1iBsO+4Hbl5LphMkKBSv6zKRnyUCcO6RokHISLEiBZ1TsSO+HJuOtrVD5We//5jNuxMsCEnz4WHri2DSQsycH23KCzdkotFG3Px4k1lpfQUCC+MLIvnpiShchkzxgyIxc8rs2WYYv3ufAlilZ3vQkqGExFhRjgcQNloExIzHGh8WTDmrs1Bs9ohWLcrX/Iv7QLhk08+QYcOHcQ4NmzYUAw9e+n0IHAIgJEwFy9eLBPdaNApFjg8QIM8Z84c6W3TpU/Dv3z5cnnl7Hq67ek9aNu2rYiGRx99FAMGDJDldezhv/7665g/fz6mTp0qBp6Gm0LSUw5OwmOwppdffhkVK1aU4QBOvqNx53BH9+7d5Tpvv/023nvvPTH0FA0UCRQ69FJwaIHeAV6LooX14eesE2f4Mzokh03oZaAHoW/fviJS6EnQpASUQOki4LNAsNrdmPJHBiwmA9o3CBWXebDFALvDLb1aRlqMDj/REw0PMcJmd+OreeniYh/YLgKb9+ejY8Mw2Bxu5Fndctzfh6yoWyVIjCiNJh+O2fluca+XifKf8fLCCgTWbfWOPNidQMdGodh/3IbcfLcElNq4Nx8uF9C8dogwOJRkR9WyJ8azV/+dJ0Y+Mc2JelWDQObLt+bCbDagSY1gRIefYMKAVSFBRrSpF4JdCTY553CSHdsP23BF83ARFJXjLQgyGXAo2Y5mNYORZ3fDanMjJtwoQxEHkxySF/lzeKI0J7rY2YunG9+T5s6dK0vnOFa/bNky6ZFzWIFCgcvmGEWR9wWNOg06Z9Wz588fGNfhc24AvQoeQ0shQA8Chw3Yw6dHgcMLNOTs2fOVwoQeAc454Gx8TqLjTPylS5fK0AXLSBHAYQJ+TzEycOBAEQksF40/P/MMM3AuAd9zHsWRI0fk2hQyHFpgmVlfhgSnp4IihhxY/nbt2pXm20HrrgRKLQGfBUJ2ngszl2UhIsSAYIsRNSpYxNAzHgLH2znpjr1ffnZz72gs25p3sicbFmzEhPnpuOeqOOxOsGH26mwJrDTl9wx0aRzGkAlIy3KKsIiJMGLvUTuuaBHuNz1bXwRCUd5hDE5VrZxZJiYWRaKoW70zH1XKmHHZP5MliyJfzUMJKAEloAQCl4DPkxQZSZFuawqATXvz0aZ+KI6lOlAhzowF63PEVf3F3HQM6RiFqmXN2J1gF48Ae64UDxQIdLFTTFxWzoJFm3JlvJ09aYqM+lWDZEY/8/1rZx52HrJjZK8ovyB9qQWCX0DQQiiBS0yAv0MO2XCVBxPnVtDLokkJKIGiIeCzQOBvcvn2XClFqzqhWLYtF+VizOAeDRQENcpbcOC4HYkZThmCYFq8KRehwQY0qxUiS/3W7clH0xrBIgSiwo2oVMaC/cftMkxB70H5WBPiIkxYujVX8qDnwR+SCgR/aAUtgxJQAkpACRQnAZ8FQnEWyt/zVoHg7y2k5VMCSkAJKIELJaChln0gqALBB2h6ihJQAkpACQQUARUIPjSXCgQfoOkpSkAJKAElEFAEdIjBh+ZSgeADND1FCSgBJaAEAoqACgQfmksFgg/QAugUxgdgLAEGDSpMYsAk7pGgSQkoASVQEgj4HAehuCrv5MYDMMD0z4IFBlIymwwSLKmgxCWR/P5iJhUIF5P2xb8Wwxgz+FFCQgLKli0rQYsoGBh+meLBs6cCoxQycBL3XWDQIoZS5u6BDHDEgEQMmsS9GxhC2cQwmpqUgBJQAgFEwGeBwH0Fth+yScwCbh7EfQTOlTJzXVi+LQ9hwQYJhnS2lJPvgtFgkOWQTNOXZMr+A4zSeGZasysf9aoEIfIi7x2gAiGA7nAfisqwyVdccYUYfSa+Uggw7DKjKDLq4PDhwyUkMfdDYMhibifMDZauueYaiajIqIn8nHs0cG8ETUpACSiBQCPg8yTF5EwndiVYZYvhhRtyUSbaJOGDtxzMR5V4C8IsRhxNc2DNrjxMfLgSEtMd2HbQJgadOxZyS+NRPaPw0c/psoHR9d0isXa3VYRGZo4TS7bkolfzcKzZmY8r20Zg7zG77ElwONmBpAwHujYJA3dJrBBnQWKaA7uP2jB2YCwm/paBlCwHOjQIk/0IPr2vQpG3iQqEIkfqVxky5DFDJXO7ZO6rwF0dPeGNuWkSA/NwXwTuh8CQydwDgd/bbDbxIHCrZ27kFBYWhrVr12LIkCGyKZImJaAElEAgEfDZg8CoidxW+GCiHYyq2KFRKA4cdyAl0yHBka7tFIkPf05DTr4bL46Klz0CGBqYmwzR69C0VrDsr0APwaEkB0YPiJV9HY6mOCREc6UyJpSJMssuhxQIPyzPwqie0fh4dhoqx5vRr3WE7G8QG2nGhj0n9izo1jgcWw9Y8ebMFNn+mB6Lx4eXKfL2UIFQ5Eg1QyWgBJSAEvAzAhc0SZGbB3GuAOcA2B0uGXPl//nKxIiIplPmD3DDJqMR+GFZNoZ0ioDRaJANiDhEweQGN2Y68Z5DDYymWFBivhQbDN3MazGqo8t9+lwEhxP/lKXoiatAKHqmmqMSUAJKQAn4F4ELEgi+VoWioKA5Bb7md7HPU4FwsYnr9ZSAElACSuBiE7gkAuFiV7Kor6cCoaiJan5KQAkoASXgbwQKnKSYnu3gWkNNZyFgz0uH2Ww6OZTCSWvBwcEyKU1T4BNYtGgRDhw4gFGjRskkRA5l9ejRA0FBQVK5bdu2yYoGT1q4cKFMVDw15efng8slK1euLBMUjx07JvcHVzqkp6ejSZMmcjiXQ3K1w6lpzpw56N+/v3x0+PBhOb5KlSqyMoJDaoMGDZJlk/PmzcOhQ4fQr18/rFmzBqGhoejSpYtMovQc27t3b/zyyy+IiIhA586d5T7VpASUgBLwhkCBHoRDSVa3hCPQVCCBEGQiyGJWgVBC7499+/aJUc7Ly5MthGmUKRj69OkjNf7+++9lxQKXQnLJ47hx43DnnXfKaof//ve/EvuAgiAqKgq9evXChx9+iFq1amHWrFkiFpo1ayaigysi2rRpg8svvxz8IXKJJPOZNm0aWrZsiRdeeEHet2jRQspBz9UDDzyAu+++W0TBX3/9JeUaOnSoiIKxY8eidevWGDBggCy77Nmzp9SD5eD1VMCW0BtWq6UEiolAwQIh2er+Z4v1YrpsYGerAiGw2+98pWdvnH9cxlizZk3pme/cufNkr37mzJkiHvr27SsGeMKECbj++uuRlZWFPXv2YMSIEXA6nVi8eLF4B7hkkgLh999/F+M9ZcoUdOrUCQy0RCHRqFEjbN68GeXKlZPYChMnThTRwcTr0IvA4Ew8nx4AXpdRHvfu3SteBAoDxlugh4DXYj4UDywP31M8cNnllVdeKf/XpASUgBLwhkCBAuFwss19IqKhpoIIqEAo2ffFM888gyNHjuDll1/GV199JZUdPXq09MRpvL/99lvp3dMIM2oivQj8/9NPP41XXnlFPAm7d+/Giy++iBo1aqB58+ZISkoSY0+jTvEwcuRIEQ0egUBBQLFBDwO9AvQgXHXVVScFAo38+PHjQe8Gy8T4DBQltWvXFq8Dr8dhEOZBb8GkSZOwceNGvP7662B96tatK8dxqEGTElACSsAbAgULhCSr23kefZBrdWHZ1jyJXVC5jBlR4SaEhxjk/z+uyMbVHSOQb3PLMsaQoBOhkvOsbsRHB37IWRUI3txapesYDjmsWLECXbt2LV0V19oqASVQYgn4PAeBhn/6kixEhhlRPtqM2lUsyMt3o0KcCT+vyIHN4UKHhmEIDTYiJ9+Jrfut6NIkTGIbePZZCFSqKhACteWKr9zstTN5YoAU35U0ZyWgBJTAxSFQ4CoGbyYpMpDRkRQH8mxupGa6RBjEhpsQH8PoiFkIDzZIxEOmuEgTgiwGLN6Ui4HtIhBxkfdOKGqUKhCKmqjmpwSUgBJQAv5GwOdJiuww7T1ql/pULWfGniN21KxokaiIR1O5R4IZx1MdyMp3ITTIAE5psDuAWhUt+CdYor+x8Lo8KhC8RqUHKgEloASUQIAS8FkgBGh9i6TYKhCKBKNmogSUgBJQAn5MwOdJin5cp2IvWkECgTPXdce+YkevF1ACSkAJKIGLRKBAgXAkxeZ2/jPp6iKVI6AuE+Q6PVASJ6hxuRuXkGmkuoBqSi2sElACSkAJFEAgIyNDYqgwaqtn8jU7wgaXy+XW2dhnv2fO3IuBR3JtO8Poemaz6x2nBJSAElACSiBQCVAYmM3/ixjMelAXqEA4T4sWJBB4ioqDQP0paLmVgBJQAkrgVAIFOQlEILgLYemcLhQY12DLfivqVQ2SwEklLZ1NIJS0emp9lIASUAJKQAl4CBRKIPyyOhu7E2zo1SIcNStYkJDiQO1KQci3usE4CW4DZNljRIiBvgk4nS58OicdYwbESoRFBk2yO9wwmQBjAK19VIGgPxgloASUgBIojQS8GmJgXINnJyYhNtKE7k3D0KJ2CA4ct0twpOXb8vDhrDQ8MqQMKsSaMHVxJoZ0isTm/TbsOGTFbX1i8P2yTKzfbcXYgbH4emEGXrs1cDaRUYFQGn8WWmcloASUQOkm4PUchL8P25Ce7YTN4UZiuhPRYUY4nG70bhmBA4l2PDYuEbf2jkZimhNlokwICzFi0eYchAYZcXX7SMxdmw0OQwzvGoVJCzIw6ZFKAUNeBULANJUWVAkoASWgBIqIgK5i8AKkCgQvIOkhSkAJKAElUKIIeO1BKFG1LmRlVCAUEpgergSUgBJQAgFPoFCTFAO+tj5WQAWCj+D0NCWgBJSAEghYAupB8KLpVCB4AUkPUQJKQAkogRJHoFBxEEpc7b2okAoELyDpIUpACSgBJVCiCOgkRS+aUwWCF5D0ECWgBJSAEihRBAo1xODZz6koYhy5Gec5QFCqQAiQhtJiKgEloASUQJER8HqSYkKyA0s258LqcKF703DsPmJDtbIWiag4a1U2rmwbgdQsF46nO2Czu5Gc4UC+3Y32DUKxdlc+6lQOwoa9+YgIMaJBtWD8sSEXtStZYDQCHRuGFVmFiiMjFQjFQVXzVAJKQAkoAX8mIEMM3uzFQIEQbDHA7nQjK/eEENh7zI7cPBdu6BGFqDATNu2zYv3ufFQtZ8HxVDua1wlBntWFY6kuRl7GZ3PScFvfGHRtHIYpv2eAwZceHVYGlcuY/ZkRVCD4dfNo4ZSAElACSqCYCHgVavloqgP7j9nhcrtRLsaMXQl2OF0uRISaEBlqQPPaIZj7Vw5Ss5ziLUjOdEo45vQcF46nOlCnsgXPTE7GbX2i0apOKGYszZLvs/KcaHRZMCJCjcVUvQvPVgXChTPUHJSAElACSiCwCHg9B8HpdCMt2wWLGYgONyEz1wWzCRJKOSXLiTKRJhEHZpNBPA0ulxtBfHUDufkueZ+d50ZUmFG+5+ZO3BmSG0nGRJj8mpoKBL9uHi2cElACSkAJFAMBXcXgBVQVCF5A0kOUgBJQAkqgRBHw2oNQompdyMqoQCgkMD1cCSgBJaAEAp6A16sYAr6mF1ABFQgXAE9PVQJKQAkogYAkoB4EL5pNBYIXkPQQJaAElIASKHEEvFrmWOJqXYgKqUAoBCw9VAkoASWgBEoEgUJNUnQ4T6xIiAo3yuoEh+PESoVTE1clcHUCVzN4UnYel0MWvIyRcRIOJjpQr2pQgUBzrS5ZKVEU0Rt9bTEVCL6S0/OUgBJQAkogUAl4PcRAQ/7zqmy0qBWClEwnala0YN3ufPRtFQGnyw27w420LBciw4yyhDE+2gST0QCGZ77342N4b0x55Nu4NPLEMkfmRxGx56gd1cubEWQ2Sj78zGp3y3LKYykOlC9jhtFgEGESEnRCdNgoTMwGidQYFmyEsZhjNqtACNTbW8utBJSAElACvhLwepLi9oNWhIUYUT7GjKMpdny/Ils8CA9fG4fN+6z4flkW7hsch9Agg4RWZqyEpjWD8fuGXOw9akPtSkF4/8dU3HtVrIRfnvNXNv7cmofR/WMx4bd0XN0+EuEhRpSNMWHSggyJl3B1x0hkMtBShhM1KlgwfUkmGlULRv1qwVi2NRcmkwE1ylvQsk6Ir/X36jwVCF5h0oOUgBJQAkqgBBHwOtQyhw1enZaMzpeHIthsxP5EG1rUDkWFGJOEUE7PcWN410iUjzUjyATsOupA23oh+HF5Fno0Cxevw/2fHUevZuG4tU803vk+VTwJg9pFikC4vW8Mpi7MxJiBsfhkVhrCgg1o3zAM0WEnAjFx6GLNLiuGdY5CZJgBr32XgiEdo5CR60Sv5uHF2iQqEIoVr2auBJSAElACfkrgok1S/OSXNIwZECsY9h/n0ILFT5GcXiwVCAHRTFpIJaAElIASKEICXs9BKMJrBlxWKhACrsm0wEpACSgBJXCBBAq1iuECrxWwp6tACNim04IrASWgBJSAjwTUg+AFOBUIXkDSQ5SAElACSqBEEfB6FUOJqnUhK6MCoZDA9HAloASUgBIIeALqQfCiCVUgeAFJD1ECSkAJKIESR8DrVQypWU6JkhgTboTF/L/oRAxwxKBIZyZ+7nIBRiP/DPAcwaBHjKkQKEkFQqC0lJZTCSgBJaAEioqA15MUKQ7+2pkPh9ONhtWCMXdNNjo2CpVgR72ahSEi1IQtB6xoUj0Ye4/Z0aJ2iMQvSEp3oHyMCWEhJkxdlIFOjcLw9cIM3NkvFgs35uCmXtGYvTpbljw2rVm8AY98haYCwVdyep4SUAJKQAkEKgGvhxg277dK8CIa8gPH7Hh5WooETRrVKwa7j9jw/s8puKJZBOIiTCIcGOWQ+yi8OT0VN/eKwi9rskUULNqUiz825GBEj2iEBRnx8ew0XNctEpdXD0awxT+9CioQAvX21nIrASWgBJSArwS8nqTIDZcYQjk50ymhkl/7Lhm394nFnqM2Me4b9+ajcrwF8VEm1Kl8YuOlPOuJPRqmLc6UY46lOeS72SuyJIzy9kM29GsVgdU783Aw0Y4be0b7Wo9iPU8FQrHi1cyVgBJQAkrADwl4HWqZZefwAjdfMpsNsg8D5yFw4yTLPzs3euYinLrzohuQczhFwcZNmCwGOJ0n5izYnSc2XeIr/1/cmy75yl8Fgq/k9DwloASUgBIIZAJeT1IM5EpeSNlVIFwIPT1XCSgBJaAEApGA13MQArFyRVVmFQhFRVLzUQJKQAkogUAh4PUqhkCpUHGUUwVCcVDVPJWAElACSsCfCagHwYvWUYHgBSQ9RAkoASWgBEoUAa9XMZSoWheyMioQCglMD1cCSkAJKIGAJ+C1ByEn3wWuTuCKBC5djIkwnaw8P1u2NQ+hwQYcSrZjcPvIf4FhREU33Fi1Ix8dGoYGFDgVCAHVXFpYJaAElIASKAICXnsQEpIdeO+nVNzeJ0YuG2QxgKIh+J9limWizFi1Iw9NagajfIwZOw5ZUTHOjIwcF0KCgIUb8yQg0rFUp8RHKB9rkgBLDLlcrZwFaVlOVIg1S77+llQg+FuLaHmUgBJQAkqguAl4PUmRAsFiBmb+mYUeTcOxdEuuxC8YPSAWR1Mc+DvBhthwI46lOlCnShBCggzYvM+KqDAjflqRjXb1QzGofQRem5aCh4eWEUHw7JQk3NE3Bg4nJMAS4yg0qBZc3HUudP4qEAqNTE9QAkpACSiBACfg9RADRQB796nZTqRmOjF9SSbqVQuWvRR+WJ4l3oKYcBMS0xyoHG/G69+l4PpuJ/ZZCAsxoEHVIHRuFC4REycvzEC7eiEiKkZ0jwa3cXp9ejL+b3CcRGn0t6QCwd9aRMujBJSAElACxU3A6yGG4i6IP+evAsGfW0fLpgSUgBJQAsVBoFChloujAIGQpwqEQGglLaMSUAJKQAkUNQENtXweoioQivqW0/yUgBJQAkrA3wnoEIMXLaQCwQtIeogSUAJKQAmUKAI6xOBFc6pA8AKSHqIElIASUAIlioDXqxhKVK0LWRkVCIUEpocrASWgBJRAwBPweoiBQZESuNTRZED5ODNCg84e0Cgz1wWTEQgPMQqgQ0l2VC1rKRBWdp4LRiMQFnzi2FPT4SQHbA43alYs+FxGcDye7pAAS8WZVCAUJ13NWwkoASWgBPyRgNcehOx8F9b8nY+q5SxYsiVXAh3VrRKETXutEmK5XuVgpOU48f/t3QtwXNV9BvBv7753pV29bclCsizLL/k5BmzjB8YmqYnBiQOODTFpGdxmcEsyuLSBTmcCM9CZpkOY0vBKDLSNU9MEU9ugGgdsY2wwxjZCftWy8fuht3ZX2vfj3s49whSMEh0lq93V7XcHRqO7Z+8953fujD7fu/s/zZdiWDYrX9Q+eHV3D76zwIOnX+/GPQs92Pc/ESya7sbuI2FMrLKJkswvveXH9FoHtnzYi2/OycfZlgQqSyy4cYITe46EUVFsQSimomG/Xk9BwfV1TiRTmujDoyuL8YttfjxweyEe29CBH60o/jyUpBObASGdmjwWBShAAQoMBwHpOwj6YPQ/3iUFZryy3Y9QVIMeGn68ugSv7enFRyfCWLnQi5l1DvFHe169C42noxhVZMbxC3E47QoudyZQP9qOD09E8INlRRg90oozLQnEExrcThPeaQwBMOG+r3uhasCB5gjGVthE6KgZacOupjA8TgWVpRY8s6Ubzz9Yjufe9OHBZYXinPcvKYDNkv5SzQwIw+FSZh8pQAEKUCCdAoP6kKL+OED/V3wwrIq7Bs2X4phUZcf59gQ6e5KIJyB+74mkYDWbxGMD/fGBHgwsZhNKvGax2JP+6CGV0uDUj6U/YjABnT0pMS59ISg9FGgA/MEUCvPM6PAnkedU0OpLwWox4VJnAnarCVNrHCI86O319+n79POke2NASLcoj0cBClCAArkuMKg7CAMNpieUgsf9f6s8DtR+uLzOgDBcZor9pAAFKECBdAmkNSCkq1O5dhwGhFybEfaHAhSgAAWGWmBQjxiGujO5enwGhFydGfaLAhSgAAWGUsCkqqqm30rg1r8AAwKvDApQgAIU+P8mwEcMEjPOgCCBxCYUoAAFKGAoAek6CIYa9SAHw4AwSDA2pwAFKECBYS8gHRBaupOixoDZDFGLYO/xKBZMdvYLoBc/0msSGGVjQDDKTHIcFKAABSggKyAdENr9KaRUDU9t6sKK+R5YLQrKvGakNA1mxYRSjxn+UErUK3hiYyfuXujFhEob2v1JqICoixAIqSgvsiCW0KscaGjpTsFmgah14HYqyHd+tdyy7ECGsh0DwlDq8tgUoAAFKJCLAtIBQe/8f73fi2hCw8nLMfzVsiK8fyyMTy8ncNMkJyxmoCDPDI/LjBcafKLd2qUFKC2w4KebujG33omTVxK4a24enm/wYfoYh1hDIRLXcF2pBf+5uwcP31Wci0ZgQMjJaWGnKEABClBgCAUGFRBebPDh+0sL0fBREHMmOvHEf3SKdRRm1DowebQN637Rjke+U4yt+4JikaXbZ+Xhnzd3zrtkDwAADe9JREFU48k/LcUvd/bgQnsCN09xYfuhIL7/jUJs2BHAjLEOXOhIiEqIf30nA8IQzjUPTQEKUIACFJAWGFRAkD6qwRryDoLBJpTDoQAFKECBAQUYEAYkAh8xSBixCQUoQAEKGEuAAUFiPnkHQQKJTShAAQpQwFACotQyKyn+/jllQDDUNc/BUIACFKCApAADwgBQDAiSVxKbUYACFKCAYQRYalliKhkQJJDYhAIUoAAFDCXAzyBITCcDggQSm1CAAhSggKEEGBAkppMBQQKJTShAAQpQwFAC/QYEvRByuy8Jq8WEonxzvwPWCxsFo6ook2z0jQHB6DPM8VGAAhSgwLUC/QaEVErDrsNhjBlpxdFzMdw6Iw/xpIrmS3HMmuDE2dY4XDYFjWeiWDTNhVgCYg2GY+ejqCiy4jd7e/Fnt3rQeCaG2RP6X9BpOE0FA8Jwmi32lQIUoAAF0iHQb0BIpjTsbAqjvsqGX+3qEeWU9RUc3Q4Tnt7sw23Xu1HsMePw6RiWz/XgQkccP329Gw/fWYSxFTa88N9+FOYpmFfvgseliH3DeWNAGM6zx75TgAIUoMAfIvA7A8LbH4cxZ6IDZ9sSGD3CijMtCby5vxdlhRax7HNbdxJjR9nQdDaGqhILwjENiZSGNUsK8NiGTowbZUXj6RjW3l6ImXWOP6RvOfMeBoScmQp2hAIUoAAFMiTADylKQDMgSCCxCQUoQAEKGEqAAUFiOhkQJJDYhAIUoAAFDCXAUssS08mAIIHEJhSgAAUoYDgBlloeYEoZEAx3zXNAFKAABSgwgABLLUtcIgwIEkhsQgEKUIAChhLgZxAkppMBQQKJTShAAQpQwFACaQ0IPaEUPG7jVVZkQDDUNc/BUIACFKCAhIB0QLjcmUQ8qcHXm0I4rmJytUP83t2bEsWQ8p0KdnwSwqzxTlFVMRRToZdjznMoeOjnbXh5XQVUVcPmD4KoKrOgzGuBxWKC16Wgs6fvGPrmC6qwmCEKMXUGUij1mtHmS6I2i8WWGBAkriQ2oQAFKEABQwkMKiD8ckcA4yptotTy6kVeXGhPYEShBW/sD+K7t3iw+0gY0IC6Shtee68Xa+8ohMNmwoPPtYqAoGnAsfMxmBRgZ2MId8zOFwGjssSCje/24IbxThw8GcWMWrsorqTva74YFwWbvj3PkzV4BoSs0fPEFKAABSiQJQHpgNARSMFqBgryzHj9/V4sm52HI+di+PRyHEUeM2aMcWDn4bD41/5NE52ismJK1VBZYsWruwN4dGWJ+L1hf1AM9boyK+pG2cQdCX2Nh/JCC6xWYNPeXtSMtOFPZrpF2ztm52HP0Yj4ma2NASFb8jwvBShAAQpkS0A6IPTXQX3VR9NnL+iPDxTl6m99O/U7BqYv74L62b4v7r7a7upPPTR43Yo4Xn/HyDQWA0KmxXk+ClCAAhTItsAfFRCy3flMnZ8BIVPSPA8FKEABCuSKAAOCxEwwIEggsQkFKEABChhKgKWWJaaTAUECiU0oQAEKUMBwAiy1PMCUMiAY7prngChAAQpQYAABllqWuEQYECSQ2IQCFKAABQwlIP0ZhFBURTIF8e2CpjNRTBvj+BJEV09KFDfqb9O/uZBMabjQnkRtufUr32zIdVEGhFyfIfaPAhSgAAXSLSAdEPRKij/b2o0fry7Fkxs78TcrivHsVh8eXVWMnZ+EEIlrWDTNhX/Z0o2/+EaRCBEuuwm7DoexZkkBfvKbLtw514PaCiue2dyNh+8sxvGLMZy8FMfqxd50jyutx2NASCsnD0YBClCAAsNAYFAB4cTFGFwOBc9s6cYzD4yA227G+u1+jCo2w6IoKMhXUFdhw1sHg/jWTflw2kyIJTTsPRrBhCobrnQlxZ2EORNdImysXOBBnkuBxWz6vNRyLpoxIOTirLBPFKAABSgwlAKDCgh2qwn/9k5ArLOwdmkhntrUhR8uL8KOxpAogHTLVDeefdOHexZ6xKOEVl8Kr74bwMxxTrR0JzFmpBXlRRa8uM2P7y32oqrMKtZnMCsm8egiVzcGhFydGfaLAhSgAAWGSkA6IAxVB4bDcRkQhsMssY8UoAAFKJBOAQYECU0GBAkkNqEABShAAUMJMCBITCcDggQSm1CAAhSggKEEGBAkppMBQQKJTShAAQpQwFACLLUsMZ0MCBJIbEIBClCAAoYTYKnlAaaUAcFw1zwHRAEKUIACAwgMWallvfKi29H31cVEUkMwqqIwr/9Ki7k+SwwIuT5D7B8FKEABCqRbQPoRQ5sviQMnoxhfaYOmASYFsJpNuNSZRHWZBZ+ciWFajV0URgqEVOhFleZNdqGswIxgRMW2gyEUuBUsnu4W70tpGlx2BVs/DGJshRUXO5LQ6yzMmejEoVPRz3+2+ZOYUmNHIKiiqswCrzvzIYMBId2XHY9HAQpQgAK5LiD9IUVVBaJxFe8djeDtj0No9SVwzy1ebDsQxLQxdmw/FMLaOwoxttwm1mT4qDmKulFWROOaqJL4/vEIIlEN3jwFTaejeGRlCRQF+Ne3A7h5igub9/XCrAD3LvbiB8+14qWHKvBOYwh7joaxaLoLr/w2gK/NzMN9X8t8WWYGhFy/jNk/ClCAAhRIt4B0QGj3p9AbTkHVTDh1OYYZtQ60B5KwWRTxCOHdIyGsutmDcFTF+fYkKootKCuwIBJXxZ2CY+dj+PjTKBZOdeHouRhW3uwRY9EDwORqOw6eiopFnOoq7LjYEcesCU48/6YP+5sjeGx1qVjXIRBWManKnm6DAY/HgDAgERtQgAIUoIABBaQ/pKg/WoBJ/CdKKysm9D1u0Hd8tl37+7X7e8L6ZxNMorzy79o+O41YuyGR0lBdZv3KeTI5DwwImdTmuShAAQpQIBcEpO8g5EJns9UHBoRsyfO8FKAABSiQLQEGBAl5BgQJJDahAAUoQAFDCTAgSEwnA4IEEptQgAIUoIChBBgQJKaTAUECiU0oQAEKUMBQAgwIEtPJgCCBxCYUoAAFKGA4AelvMez8JCS+sXDLNPeACOfaEhg9wira6YWSzrcnUF/91a8oNp2J4UxLHMvn5g94zGw1YEDIljzPSwEKUIAC2RKQLrV8uiUOh1VBQV5f3YP12wJYc5sXv97Ti6mj7fioOYKxFTZc6Ehg5lgnAuEUzrclcP+SArT7k3hyYydWLfRizEirqI9wuiUhKii+sj2Ae2/Nx/MNAaxa4EFvRBXVF5/a1I0/v80LPUDotQ9GlViw73gE86e4Mm7FgJBxcp6QAhSgAAWyLCBdallfW2FnU1gUPth7LIK/W1UCvfxyStVQlG/GXz7bih+tKEHNSKuokNj4aQyTR9vEH3y9kuL+5igutPXdRdh7PIy/v7tEvPeD4xFMHm3H4xs68cNvFaHVl8TZ1gS+PTcfW/f1YtmcPBw5F8fJSzHcNd8jyjFnemNAyLQ4z0cBClCAAtkWkP4MQjyp4fFfdULTNDy4rAiPvNyOdcuL8MSrXVh7ewGefcOHjY+MwsPr23HjOAdqRtpQW26FXhjJ61bwwM9aMb/eJaotHjoVwdJZfY8U1m/z47eNIbyyrhwvNPjhtpuwaLobj23owJolBZg/ue+Owb+/ExB3I7KxMSBkQ53npAAFKECBbApIB4R0dfLAyQim1jgGdSdAX/hpRKEla6tBMiCka/Z5HApQgAIUGE4C0h9SHE6DSmdfGRDSqcljUYACFKDAcBDI+B2E4YBybR8ZEIbjrLHPFKAABSjwxwgwIEjoMSBIILEJBShAAQoYSoABQWI6GRAkkNiEAhSgAAUMJcCAIDGdDAgSSGxCAQpQgAKGEpAOCOGYirMtCZQWmFGYb4ZZMeFqRQK9umIypeHY+Tim1tihv6C/pqoQNRG6elIo9pihasChk1FUj7CIYklXX9dF9XoJ8YT2eTtoEFUb9f81DeK9ZiU79gwI2XHnWSlAAQpQIHsC0gHhcmdSfDUxGlexoymMb87Ohz+UQiCkin21FVZsPxgSVQ/1ryRe7EhgRIEZboeCv32pHS+vq4CqaaIa4vq3/PiH+8qQSKq40pVC1Qgr3m0K47Yb3HjrYFDUUAiEUij1WkRhpT3Hwph4nV2EkKvlmzNJxoCQSW2eiwIUoAAFckFAutSyHhAOnIxifKUNO5pC+N5ir1hDYcJ1drzY4BNFjN47EkYkrmFcpQ0bdwXw+L2lMJtNuP/pK3j5ob6AsOWDICqLrUioWl8Z5WorJlY64Aum4HKY8E+vdWFStQN335wv7jy0+VOYMtqOf/x1F5bPzcPMOmfG3RgQMk7OE1KAAhSgQJYFpO8g6BURLQrgcijYfyKCG8c7cfRcDGdb45hSY0d3ryoeBVzpToiCRrXlNhw+G0N9tQ37myNYekMe7DYFlzoS+LA5guvHOnC5K4nJ1XYcPBXFvHoX9GqNe46GReXFufUuNJ2J4tTlOGbWOeDrVVGUr2BMuS3jZAwIGSfnCSlAAQpQIMsC0gEhy/3M6ukZELLKz5NTgAIUoEAWBBgQJNAZECSQ2IQCFKAABQwlIAJCR0eHVlJSYqiBpXMwDAjp1OSxKEABClBgOAj4urthumneAm1bwxvweDzDoc8Z7yMDQsbJeUIKUIACFMiiQDAYxJqVK2Cye4q1mVMnYfPrm1BaWiqWdL520281XLu/v336+4zW1u/3Q1EUMa5rN93k6nivvn5133Bs+8W+9ze2L46Jbfs0jOjw+67ra69vtv3ydSBzPdCMZl/8e5JL14M+M52dnXjg3u+i98RR/C/CcOw5wNvM/AAAAABJRU5ErkJggg==;" vertex="1" parent="1">
          <mxGeometry x="80" y="40" width="741" height="424.65" as="geometry" />
        </mxCell>
        <mxCell id="jXBSCCMV-D7_--bO9lGM-8" value="Skeleton" style="locked=1;" parent="0" />
        <mxCell id="jXBSCCMV-D7_--bO9lGM-1" value="" style="rounded=0;whiteSpace=wrap;html=1;fillColor=default;strokeColor=#CCCCCC;" vertex="1" parent="jXBSCCMV-D7_--bO9lGM-8">
          <mxGeometry x="80" y="40" width="740" height="420" as="geometry" />
        </mxCell>
        <mxCell id="jXBSCCMV-D7_--bO9lGM-2" value="" style="rounded=0;whiteSpace=wrap;html=1;strokeColor=#CCCCCC;" vertex="1" parent="jXBSCCMV-D7_--bO9lGM-8">
          <mxGeometry x="80" y="40" width="100" height="420" as="geometry" />
        </mxCell>
        <mxCell id="jXBSCCMV-D7_--bO9lGM-4" value="" style="rounded=0;whiteSpace=wrap;html=1;fillColor=#f9a925;strokeColor=#CCCCCC;" vertex="1" parent="jXBSCCMV-D7_--bO9lGM-8">
          <mxGeometry x="80" y="40" width="740" height="13" as="geometry" />
        </mxCell>
        <mxCell id="jXBSCCMV-D7_--bO9lGM-5" value="" style="rounded=0;whiteSpace=wrap;html=1;strokeColor=#CCCCCC;" vertex="1" parent="jXBSCCMV-D7_--bO9lGM-8">
          <mxGeometry x="80" y="53" width="740" height="20" as="geometry" />
        </mxCell>
        <mxCell id="jXBSCCMV-D7_--bO9lGM-6" value="" style="rounded=0;whiteSpace=wrap;html=1;strokeColor=#CCCCCC;" vertex="1" parent="jXBSCCMV-D7_--bO9lGM-8">
          <mxGeometry x="180" y="73" width="640" height="46" as="geometry" />
        </mxCell>
        <mxCell id="jXBSCCMV-D7_--bO9lGM-7" value="" style="rounded=0;whiteSpace=wrap;html=1;strokeColor=#CCCCCC;" vertex="1" parent="jXBSCCMV-D7_--bO9lGM-8">
          <mxGeometry x="190" y="128" width="623" height="152" as="geometry" />
        </mxCell>
        <mxCell id="jXBSCCMV-D7_--bO9lGM-14" value="Sceleton - Text" style="locked=1;" parent="0" />
        <mxCell id="jXBSCCMV-D7_--bO9lGM-9" value="" style="rounded=0;whiteSpace=wrap;html=1;fillColor=#E6E6E6;strokeColor=none;" vertex="1" parent="jXBSCCMV-D7_--bO9lGM-14">
          <mxGeometry x="581" y="58" width="54" height="10" as="geometry" />
        </mxCell>
        <mxCell id="jXBSCCMV-D7_--bO9lGM-10" value="" style="rounded=0;whiteSpace=wrap;html=1;fillColor=#E6E6E6;strokeColor=none;" vertex="1" parent="jXBSCCMV-D7_--bO9lGM-14">
          <mxGeometry x="645" y="58" width="31" height="10" as="geometry" />
        </mxCell>
        <mxCell id="jXBSCCMV-D7_--bO9lGM-11" value="" style="rounded=0;whiteSpace=wrap;html=1;fillColor=#E6E6E6;strokeColor=none;" vertex="1" parent="jXBSCCMV-D7_--bO9lGM-14">
          <mxGeometry x="690" y="58" width="28" height="10" as="geometry" />
        </mxCell>
        <mxCell id="jXBSCCMV-D7_--bO9lGM-12" value="" style="rounded=0;whiteSpace=wrap;html=1;fillColor=#E6E6E6;strokeColor=none;" vertex="1" parent="jXBSCCMV-D7_--bO9lGM-14">
          <mxGeometry x="730" y="58" width="51" height="10" as="geometry" />
        </mxCell>
        <mxCell id="jXBSCCMV-D7_--bO9lGM-13" value="" style="rounded=0;whiteSpace=wrap;html=1;fillColor=#E6E6E6;strokeColor=none;" vertex="1" parent="jXBSCCMV-D7_--bO9lGM-14">
          <mxGeometry x="790" y="58" width="25" height="10" as="geometry" />
        </mxCell>
        <mxCell id="jXBSCCMV-D7_--bO9lGM-15" value="" style="rounded=0;whiteSpace=wrap;html=1;fillColor=#E6E6E6;strokeColor=none;" vertex="1" parent="jXBSCCMV-D7_--bO9lGM-14">
          <mxGeometry x="90" y="58" width="70" height="10" as="geometry" />
        </mxCell>
        <mxCell id="jXBSCCMV-D7_--bO9lGM-16" value="" style="rounded=0;whiteSpace=wrap;html=1;fillColor=#E6E6E6;strokeColor=none;" vertex="1" parent="jXBSCCMV-D7_--bO9lGM-14">
          <mxGeometry x="85" y="89" width="25" height="5" as="geometry" />
        </mxCell>
        <mxCell id="jXBSCCMV-D7_--bO9lGM-17" value="" style="rounded=0;whiteSpace=wrap;html=1;fillColor=#E6E6E6;strokeColor=none;" vertex="1" parent="jXBSCCMV-D7_--bO9lGM-14">
          <mxGeometry x="85" y="106" width="41" height="5" as="geometry" />
        </mxCell>
        <mxCell id="jXBSCCMV-D7_--bO9lGM-18" value="" style="rounded=0;whiteSpace=wrap;html=1;fillColor=#E6E6E6;strokeColor=none;" vertex="1" parent="jXBSCCMV-D7_--bO9lGM-14">
          <mxGeometry x="94" y="120" width="46" height="5" as="geometry" />
        </mxCell>
        <mxCell id="jXBSCCMV-D7_--bO9lGM-19" value="" style="rounded=0;whiteSpace=wrap;html=1;fillColor=#E6E6E6;strokeColor=none;" vertex="1" parent="jXBSCCMV-D7_--bO9lGM-14">
          <mxGeometry x="85" y="138" width="32" height="5" as="geometry" />
        </mxCell>
        <mxCell id="jXBSCCMV-D7_--bO9lGM-20" value="" style="rounded=0;whiteSpace=wrap;html=1;fillColor=#E6E6E6;strokeColor=none;" vertex="1" parent="jXBSCCMV-D7_--bO9lGM-14">
          <mxGeometry x="92" y="153" width="18" height="5" as="geometry" />
        </mxCell>
        <mxCell id="jXBSCCMV-D7_--bO9lGM-21" value="" style="rounded=0;whiteSpace=wrap;html=1;fillColor=#E6E6E6;strokeColor=none;" vertex="1" parent="jXBSCCMV-D7_--bO9lGM-14">
          <mxGeometry x="92" y="166" width="28" height="5" as="geometry" />
        </mxCell>
        <mxCell id="jXBSCCMV-D7_--bO9lGM-22" value="" style="rounded=0;whiteSpace=wrap;html=1;fillColor=#E6E6E6;strokeColor=none;" vertex="1" parent="jXBSCCMV-D7_--bO9lGM-14">
          <mxGeometry x="93" y="181" width="27" height="5" as="geometry" />
        </mxCell>
        <mxCell id="jXBSCCMV-D7_--bO9lGM-23" value="" style="rounded=0;whiteSpace=wrap;html=1;fillColor=#E6E6E6;strokeColor=none;" vertex="1" parent="jXBSCCMV-D7_--bO9lGM-14">
          <mxGeometry x="92" y="195" width="38" height="5" as="geometry" />
        </mxCell>
        <mxCell id="jXBSCCMV-D7_--bO9lGM-24" value="" style="rounded=0;whiteSpace=wrap;html=1;fillColor=#E6E6E6;strokeColor=none;" vertex="1" parent="jXBSCCMV-D7_--bO9lGM-14">
          <mxGeometry x="92" y="208" width="68" height="5" as="geometry" />
        </mxCell>
        <mxCell id="jXBSCCMV-D7_--bO9lGM-25" value="" style="rounded=0;whiteSpace=wrap;html=1;fillColor=#E6E6E6;strokeColor=none;" vertex="1" parent="jXBSCCMV-D7_--bO9lGM-14">
          <mxGeometry x="93" y="223" width="17" height="5" as="geometry" />
        </mxCell>
        <mxCell id="jXBSCCMV-D7_--bO9lGM-26" value="" style="rounded=0;whiteSpace=wrap;html=1;fillColor=#E6E6E6;strokeColor=none;" vertex="1" parent="jXBSCCMV-D7_--bO9lGM-14">
          <mxGeometry x="92" y="237" width="38" height="5" as="geometry" />
        </mxCell>
        <mxCell id="jXBSCCMV-D7_--bO9lGM-27" value="" style="rounded=0;whiteSpace=wrap;html=1;fillColor=#E6E6E6;strokeColor=none;" vertex="1" parent="jXBSCCMV-D7_--bO9lGM-14">
          <mxGeometry x="92" y="250" width="58" height="5" as="geometry" />
        </mxCell>
        <mxCell id="jXBSCCMV-D7_--bO9lGM-28" value="" style="rounded=0;whiteSpace=wrap;html=1;fillColor=#E6E6E6;strokeColor=none;" vertex="1" parent="jXBSCCMV-D7_--bO9lGM-14">
          <mxGeometry x="93" y="265" width="32" height="5" as="geometry" />
        </mxCell>
        <mxCell id="jXBSCCMV-D7_--bO9lGM-29" value="" style="rounded=0;whiteSpace=wrap;html=1;fillColor=#E6E6E6;strokeColor=none;" vertex="1" parent="jXBSCCMV-D7_--bO9lGM-14">
          <mxGeometry x="92" y="280" width="18" height="5" as="geometry" />
        </mxCell>
        <mxCell id="jXBSCCMV-D7_--bO9lGM-30" value="" style="rounded=0;whiteSpace=wrap;html=1;fillColor=#E6E6E6;strokeColor=none;" vertex="1" parent="jXBSCCMV-D7_--bO9lGM-14">
          <mxGeometry x="92" y="293" width="28" height="5" as="geometry" />
        </mxCell>
        <mxCell id="jXBSCCMV-D7_--bO9lGM-31" value="" style="rounded=0;whiteSpace=wrap;html=1;fillColor=#E6E6E6;strokeColor=none;" vertex="1" parent="jXBSCCMV-D7_--bO9lGM-14">
          <mxGeometry x="93" y="308" width="47" height="5" as="geometry" />
        </mxCell>
        <mxCell id="jXBSCCMV-D7_--bO9lGM-32" value="" style="rounded=0;whiteSpace=wrap;html=1;fillColor=#E6E6E6;strokeColor=none;" vertex="1" parent="jXBSCCMV-D7_--bO9lGM-14">
          <mxGeometry x="92" y="322" width="48" height="5" as="geometry" />
        </mxCell>
        <mxCell id="jXBSCCMV-D7_--bO9lGM-33" value="" style="rounded=0;whiteSpace=wrap;html=1;fillColor=#E6E6E6;strokeColor=none;" vertex="1" parent="jXBSCCMV-D7_--bO9lGM-14">
          <mxGeometry x="92" y="336" width="38" height="5" as="geometry" />
        </mxCell>
        <mxCell id="jXBSCCMV-D7_--bO9lGM-34" value="" style="rounded=0;whiteSpace=wrap;html=1;fillColor=#E6E6E6;strokeColor=none;" vertex="1" parent="jXBSCCMV-D7_--bO9lGM-14">
          <mxGeometry x="93" y="350" width="57" height="5" as="geometry" />
        </mxCell>
        <mxCell id="jXBSCCMV-D7_--bO9lGM-35" value="" style="rounded=0;whiteSpace=wrap;html=1;fillColor=#E6E6E6;strokeColor=none;" vertex="1" parent="jXBSCCMV-D7_--bO9lGM-14">
          <mxGeometry x="92" y="365" width="38" height="5" as="geometry" />
        </mxCell>
        <mxCell id="jXBSCCMV-D7_--bO9lGM-36" value="" style="rounded=0;whiteSpace=wrap;html=1;fillColor=#E6E6E6;strokeColor=none;" vertex="1" parent="jXBSCCMV-D7_--bO9lGM-14">
          <mxGeometry x="85" y="382" width="32" height="5" as="geometry" />
        </mxCell>
        <mxCell id="jXBSCCMV-D7_--bO9lGM-37" value="" style="rounded=0;whiteSpace=wrap;html=1;fillColor=#E6E6E6;strokeColor=none;" vertex="1" parent="jXBSCCMV-D7_--bO9lGM-14">
          <mxGeometry x="93" y="396" width="47" height="5" as="geometry" />
        </mxCell>
        <mxCell id="jXBSCCMV-D7_--bO9lGM-38" value="" style="rounded=0;whiteSpace=wrap;html=1;fillColor=#E6E6E6;strokeColor=none;" vertex="1" parent="jXBSCCMV-D7_--bO9lGM-14">
          <mxGeometry x="93" y="410" width="27" height="5" as="geometry" />
        </mxCell>
        <mxCell id="jXBSCCMV-D7_--bO9lGM-39" value="" style="rounded=0;whiteSpace=wrap;html=1;fillColor=#E6E6E6;strokeColor=none;" vertex="1" parent="jXBSCCMV-D7_--bO9lGM-14">
          <mxGeometry x="93" y="424" width="47" height="5" as="geometry" />
        </mxCell>
        <mxCell id="jXBSCCMV-D7_--bO9lGM-40" value="" style="rounded=0;whiteSpace=wrap;html=1;fillColor=#E6E6E6;strokeColor=none;" vertex="1" parent="jXBSCCMV-D7_--bO9lGM-14">
          <mxGeometry x="93" y="438" width="47" height="5" as="geometry" />
        </mxCell>
        <mxCell id="jXBSCCMV-D7_--bO9lGM-41" value="" style="rounded=0;whiteSpace=wrap;html=1;fillColor=#E6E6E6;strokeColor=none;" vertex="1" parent="jXBSCCMV-D7_--bO9lGM-14">
          <mxGeometry x="93" y="453" width="47" height="5" as="geometry" />
        </mxCell>
        <mxCell id="jXBSCCMV-D7_--bO9lGM-42" value="Header" parent="0" />
        <mxCell id="jXBSCCMV-D7_--bO9lGM-43" value="Merchant Strike" style="text;html=1;strokeColor=none;fillColor=none;align=left;verticalAlign=middle;whiteSpace=wrap;rounded=0;" vertex="1" parent="jXBSCCMV-D7_--bO9lGM-42">
          <mxGeometry x="190" y="80" width="270" height="30" as="geometry" />
        </mxCell>
      </root>
    </mxGraphModel>
  </diagram>
</mxfile>
